<svg height='100px' width='100px'  fill="#88b04b" xmlns="http://www.w3.org/2000/svg" viewBox="0 0 64 64" x="0px" y="0px"><g><path d="M58,46H39a12.041,12.041,0,0,0-4.134.983L33,47.61V45.72l2.372-.791A10.645,10.645,0,0,1,39,44h5a21.1,21.1,0,0,0,9.555-2.168l3-2A1,1,0,0,0,56,38H39a12.143,12.143,0,0,0-4.316,1.052L33,39.613V37.618l1.433-.717A17.773,17.773,0,0,1,39,36h3c2.6,0,6.387-.681,8.565-2.176a.884.884,0,0,0,.142-.117l2-2A1,1,0,0,0,52,30H39a18.908,18.908,0,0,0-5.447,1.105L33,31.382V29.618l1.471-.736A6.1,6.1,0,0,1,37,28h4a13.7,13.7,0,0,0,7.606-2.2.936.936,0,0,0,.1-.088l2-2A1,1,0,0,0,50,22H37a7.6,7.6,0,0,0-3.447,1.105L33,23.382V21.617l1.515-.76A6.28,6.28,0,0,1,37,20h3a10.882,10.882,0,0,0,6.707-2.293l2-2A1,1,0,0,0,48,14H37a8.022,8.022,0,0,0-3.447,1.105L33,15.382V13.414l.635-.635A6.488,6.488,0,0,1,36,12h3a8.306,8.306,0,0,0,5.707-2.293l2-2A1,1,0,0,0,46,6H36a8.1,8.1,0,0,0-3,.854V2H31V3.384l-.485-.241A12.764,12.764,0,0,0,26,2H16a1,1,0,0,0-.707,1.707l2.056,2.052C19.343,7.469,24.388,8,26,8a11.367,11.367,0,0,1,3.553.895L31,9.618v1.766l-.485-.241A8.139,8.139,0,0,0,27,10H16a1,1,0,0,0-.707,1.707l2.056,2.052A10.87,10.87,0,0,0,24,16h3a6.423,6.423,0,0,1,2.553.895L31,17.618v1.765l-.529-.265A7.648,7.648,0,0,0,27,18H14a1,1,0,0,0-.707,1.707l2,2a.936.936,0,0,0,.1.088A13.7,13.7,0,0,0,23,24h4a6.16,6.16,0,0,1,2.553.895L31,25.618v1.764l-.567-.283A12.778,12.778,0,0,0,26,26H12a1,1,0,0,0-.555,1.832l2.99,1.992A13.652,13.652,0,0,0,22,32h4a11.092,11.092,0,0,1,3.553.9L31,33.618v2l-1.6-.532A12.9,12.9,0,0,0,25,34H10a1,1,0,0,0-.555,1.832l3.026,2.017A17.268,17.268,0,0,0,21,40h4a11.322,11.322,0,0,1,3.684.948L31,41.72v1.893l-1.628-.542A12.341,12.341,0,0,0,25,42H8a1,1,0,0,0-.555,1.832L10.5,45.868C13.256,47.441,17.34,48,20,48h5a10.86,10.86,0,0,1,3.684.948L31,49.72v1.893l-1.676-.559A18.782,18.782,0,0,0,24,50H4a1,1,0,0,0-.555,1.832l3,2a1.1,1.1,0,0,0,.115.066c2.948,1.444,8,2.1,11.44,2.1h6a17.181,17.181,0,0,1,4.684.948L31,57.72V62h2V53.72l2.347-.782.214-.08A10.419,10.419,0,0,1,39,52h6c2.863,0,7.257-.554,10.274-2.148l3.25-2A1,1,0,0,0,58,46ZM33,9.414l.635-.635A6.488,6.488,0,0,1,36,8h7.586l-.286.286A6.37,6.37,0,0,1,39,10H36a8.137,8.137,0,0,0-3,.849Zm0,8.2,1.515-.76A6.28,6.28,0,0,1,37,16h8.589l-.24.241A8.859,8.859,0,0,1,40,18H37a8.022,8.022,0,0,0-3.447,1.105L33,19.382Zm0,8,1.471-.736A6.1,6.1,0,0,1,37,24H47.586l-.243.243A12.012,12.012,0,0,1,41,26H37a7.6,7.6,0,0,0-3.447,1.105L33,27.382Zm0,8,1.433-.717A17.773,17.773,0,0,1,39,32H49.586l-.225.225C47.612,33.378,44.282,34,42,34H39a18.908,18.908,0,0,0-5.447,1.1L33,35.382Zm0,8.1,2.372-.792A10.645,10.645,0,0,1,39,40H52.7l-.2.132A19.183,19.183,0,0,1,44,42H39a12.143,12.143,0,0,0-4.316,1.052L33,43.612ZM31,55.612l-1.676-.558A18.782,18.782,0,0,0,24,54H18c-3.3,0-7.946-.643-10.5-1.87L7.3,52H24a17.181,17.181,0,0,1,4.684.948L31,53.721Zm0-8-1.628-.542A12.341,12.341,0,0,0,25,46H20a19.219,19.219,0,0,1-8.445-1.832L11.3,44H25a10.86,10.86,0,0,1,3.684.948L31,45.721Zm0-8-1.6-.531A12.9,12.9,0,0,0,25,38H21a15.211,15.211,0,0,1-7.445-1.832L13.3,36H25a11.322,11.322,0,0,1,3.684.948L31,37.721Zm0-8.232-.567-.283A12.778,12.778,0,0,0,26,30H22a11.791,11.791,0,0,1-6.445-1.832L15.3,28H26a11.092,11.092,0,0,1,3.553.895L31,29.618Zm0-8-.529-.264A7.648,7.648,0,0,0,27,22H23a12.012,12.012,0,0,1-6.343-1.757L16.414,20H27a6.16,6.16,0,0,1,2.553.895L31,21.618Zm0-8-.485-.242A8.139,8.139,0,0,0,27,14H24a8.866,8.866,0,0,1-5.293-1.707L18.414,12H27a6.423,6.423,0,0,1,2.553.895L31,13.618Zm0-8-.485-.242A12.764,12.764,0,0,0,26,6c-2.109,0-6.116-.7-7.293-1.707L18.414,4H26a11.367,11.367,0,0,1,3.553.895L31,5.618Zm23.283,40.73A22.394,22.394,0,0,1,45,50H39a12.041,12.041,0,0,0-4.134.983L33,51.612V49.721l2.347-.783.214-.08A10.419,10.419,0,0,1,39,48H54.471Z"></path></g></svg>